<svg width="14" height="14" viewBox="0 0 14 14" fill="none" xmlns="http://www.w3.org/2000/svg">
<path d="M13.7769 0.227874C13.473 -0.0759582 12.9794 -0.0759582 12.6754 0.227874L8.00695 4.89474L7.62277 4.5107C7.25318 4.14124 6.68664 4.06346 6.22952 4.31625L5.43928 4.75377L9.24458 8.55775L9.68225 7.76779C9.93513 7.31325 9.85489 6.74448 9.48773 6.37502L9.10356 5.99097L13.772 1.3241C14.076 1.02027 14.076 0.526846 13.772 0.223013L13.7769 0.227874ZM4.55907 5.24476L0.398767 7.55632C0.153185 7.69244 0 7.95252 0 8.23447C0 8.43865 0.0826712 8.63796 0.22613 8.78137L1.27654 9.83142C1.3276 9.88246 1.40541 9.90191 1.47592 9.8776L2.74274 9.45466C2.89592 9.40362 3.03938 9.54946 2.98832 9.70016L2.56524 10.9665C2.54092 11.037 2.56037 11.1124 2.61144 11.1658L5.22044 13.7739C5.36633 13.9198 5.56328 14 5.76996 14C6.05202 14 6.31219 13.8469 6.44835 13.6014L8.76071 9.44251L4.5615 5.24476H4.55907Z" fill="#DBDEE8"/>
</svg>
