<svg width="17" height="17" viewBox="0 0 17 17" fill="none" xmlns="http://www.w3.org/2000/svg">
<path d="M8.75 0.5C7.04199 0.5 5.65625 1.89309 5.65625 3.61015V4.64687H11.8438V3.61015C11.8438 1.89309 10.458 0.5 8.75 0.5ZM3.29082 3.91469L2.5625 3.17927L1.10264 4.64687L1.83096 5.37905L3.59375 7.15119V8.79374H1.53125H0.5V10.8672H1.53125H3.59375C3.59375 11.6512 3.76777 12.3963 4.07715 13.0605L2.3498 14.8002L1.61826 15.5324L3.07812 17L3.80645 16.2678L5.32432 14.7419C6.11387 15.4482 7.12256 15.9147 8.23438 16.0248V8.27538V7.75702H9.26562V8.27538V16.0248C10.3774 15.9147 11.3861 15.4482 12.1757 14.7419L13.6936 16.2678L14.4219 17L15.8817 15.5324L15.1534 14.8002L13.4229 13.0605C13.7322 12.3931 13.9062 11.6512 13.9062 10.8672H15.9688H17V8.79374H15.9688H13.9062V7.15119L15.6658 5.38229L16.3974 4.64687L14.9375 3.17927L14.2092 3.91145L12.4464 5.68359H5.05039L3.29082 3.91469Z" fill="white"/>
</svg>
