<svg width="17" height="15" viewBox="0 0 17 15" fill="none" xmlns="http://www.w3.org/2000/svg">
<path d="M10.3294 0.271662C9.84347 0.132655 9.33755 0.413507 9.1975 0.895778L5.53893 13.605C5.39887 14.0873 5.68184 14.5894 6.16775 14.7284C6.65365 14.8675 7.15956 14.5866 7.29962 14.1043L10.9582 1.39507C11.0982 0.912799 10.8153 0.41067 10.3294 0.271662ZM12.1758 4.13267C11.8185 4.48728 11.8185 5.06317 12.1758 5.41778L14.2738 7.50006L12.1758 9.58233C11.8185 9.93694 11.8185 10.5128 12.1758 10.8674C12.5331 11.2221 13.1133 11.2221 13.4706 10.8674L16.2145 8.14403C16.5718 7.78942 16.5718 7.21353 16.2145 6.85892L13.4706 4.1355C13.1133 3.78089 12.5331 3.78089 12.1758 4.1355V4.13267ZM4.32417 4.13267C3.96689 3.77806 3.38666 3.77806 3.02938 4.13267L0.285448 6.85608C-0.071834 7.21069 -0.071834 7.78658 0.285448 8.14119L3.02938 10.8646C3.38666 11.2192 3.96689 11.2192 4.32417 10.8646C4.68145 10.51 4.68145 9.93411 4.32417 9.5795L2.22621 7.50006L4.32131 5.41778C4.67859 5.06317 4.67859 4.48728 4.32131 4.13267H4.32417Z" fill="#DBDEE8"/>
</svg>
