<svg width="16" height="14" viewBox="0 0 16 14" fill="none" xmlns="http://www.w3.org/2000/svg">
<path d="M5.42188 12.1333H8.81342L10.614 10.2288L5.82996 5.16833L2.3364 8.86375L5.42463 12.1304L5.42188 12.1333ZM6.67647 14H5.42188C4.95312 14 4.50368 13.8046 4.17279 13.4546L0.96875 10.0625C0.668199 9.74458 0.5 9.31583 0.5 8.86667C0.5 8.4175 0.668199 7.98875 0.96875 7.67083L7.75184 0.495833C8.05239 0.177917 8.45772 0 8.88235 0C9.30698 0 9.71232 0.177917 10.0129 0.495833L15.0312 5.80417C15.3318 6.12208 15.5 6.55083 15.5 7C15.5 7.44917 15.3318 7.87792 15.0312 8.19583L11.3088 12.1333H14.6176C15.1057 12.1333 15.5 12.5504 15.5 13.0667C15.5 13.5829 15.1057 14 14.6176 14H6.67647Z" fill="#DBDEE8"/>
</svg>
