<svg width="49" height="47" viewBox="0 0 49 47" fill="none" xmlns="http://www.w3.org/2000/svg">
<path d="M24.835 0H11.0378C9.51147 0 8.27834 1.23639 8.27834 2.76674C8.27834 4.29709 9.51147 5.53348 11.0378 5.53348V18.6323L0.646745 36.8582C0.224205 37.6104 0 38.449 0 39.3137C0 42.0545 2.20756 44.2678 4.94113 44.2678H21.6185C21.5323 44.1382 21.4461 43.9998 21.3685 43.8615L19.4282 40.3685C18.1002 37.9822 18.4969 35.0944 20.2388 33.1577C18.9022 31.6705 18.3503 29.6214 18.7729 27.6674H12.245L15.8323 21.3817C16.3066 20.543 16.5567 19.6006 16.5567 18.6323V5.53348H22.0756V18.6323C22.0756 19.4277 22.248 20.2059 22.5757 20.9321C24.0158 19.592 26.0164 19.0213 27.948 19.3845L27.9825 19.298L27.6031 18.6323V5.53348C29.1294 5.53348 30.3625 4.29709 30.3625 2.76674C30.3625 1.23639 29.1208 0 27.5945 0H24.835ZM31.7509 21.4077V21.9178C31.7509 23.5605 29.6641 24.771 28.2412 23.9496L27.8273 23.7075C26.827 23.1282 25.5508 23.4827 24.9902 24.4943L23.05 27.9787C22.5067 28.947 22.8258 30.1661 23.7657 30.754L24.1538 30.9961C25.5594 31.8694 25.5508 34.4632 24.1538 35.3365L23.7744 35.5699C22.8344 36.1578 22.5154 37.3769 23.0586 38.3453L24.9989 41.8383C25.5594 42.8499 26.8442 43.2044 27.8445 42.6251L28.2585 42.383C29.6813 41.5616 31.7681 42.7721 31.7681 44.4148V44.9249C31.7681 46.0749 32.6908 47 33.8377 47H37.9769C39.1238 47 40.0465 46.0749 40.0465 44.9249V44.3975C40.0465 42.7634 42.1247 41.5616 43.5389 42.3744L43.9614 42.6251C44.9617 43.2044 46.2466 42.8499 46.8071 41.8383L48.7387 38.3453C49.2734 37.3769 48.9543 36.1578 48.023 35.5786L47.6263 35.3278C46.2294 34.4546 46.2294 31.878 47.6263 30.9961L48.0316 30.7454C48.9629 30.1575 49.2734 28.947 48.7387 27.9787L46.8071 24.5029C46.2466 23.4914 44.9617 23.1369 43.9614 23.7162L43.5303 23.9669C42.1161 24.7883 40.0379 23.5778 40.0379 21.9437V21.4163C40.0379 20.2664 39.1152 19.3412 37.9683 19.3412H33.8291C32.6822 19.3412 31.7595 20.2664 31.7595 21.4163L31.7509 21.4077ZM31.3973 33.1836C31.3973 31.9912 31.8698 30.8476 32.7107 30.0045C33.5516 29.1613 34.6922 28.6876 35.8814 28.6876C37.0707 28.6876 38.2112 29.1613 39.0522 30.0045C39.8931 30.8476 40.3655 31.9912 40.3655 33.1836C40.3655 34.376 39.8931 35.5196 39.0522 36.3627C38.2112 37.2059 37.0707 37.6795 35.8814 37.6795C34.6922 37.6795 33.5516 37.2059 32.7107 36.3627C31.8698 35.5196 31.3973 34.376 31.3973 33.1836Z" fill="#2A2A30"/>
</svg>
