<svg width="18" height="17" viewBox="0 0 18 17" fill="none" xmlns="http://www.w3.org/2000/svg">
<path fill-rule="evenodd" clip-rule="evenodd" d="M9.12215 0.5C7.07454 0.501048 5.09408 1.21633 3.53489 2.51795C1.97569 3.81957 0.939445 5.62265 0.611429 7.60478C0.283413 9.58691 0.685018 11.6188 1.74444 13.3372C2.80386 15.0556 4.45201 16.3484 6.39419 16.9845C6.82266 17.0629 6.98405 16.801 6.98405 16.5783C6.98405 16.3556 6.97548 15.7099 6.97262 15.0039C4.57316 15.5152 4.06614 14.0052 4.06614 14.0052C3.6748 13.0248 3.10921 12.7671 3.10921 12.7671C2.32653 12.2432 3.16777 12.253 3.16777 12.253C4.03472 12.3132 4.49033 13.1256 4.49033 13.1256C5.25873 14.4184 6.50844 14.0445 6.99976 13.826C7.07689 13.2783 7.30113 12.9057 7.54821 12.6942C5.6315 12.4813 3.61767 11.7558 3.61767 8.51462C3.60579 7.67405 3.92385 6.86116 4.50604 6.24414C4.41749 6.03124 4.12184 5.17123 4.5903 4.00307C4.5903 4.00307 5.31443 3.77617 6.96264 4.87009C8.37636 4.49095 9.86794 4.49095 11.2817 4.87009C12.9284 3.77617 13.6511 4.00307 13.6511 4.00307C14.121 5.16843 13.8254 6.02844 13.7368 6.24414C14.3209 6.86126 14.6396 7.67557 14.6266 8.51743C14.6266 11.7656 12.6085 12.4813 10.6889 12.69C10.9974 12.9533 11.2731 13.4674 11.2731 14.2574C11.2731 15.3891 11.2631 16.2995 11.2631 16.5783C11.2631 16.8038 11.4188 17.0671 11.8558 16.9845C13.7982 16.3483 15.4465 15.0553 16.5059 13.3366C17.5653 11.6179 17.9667 9.58571 17.6383 7.6034C17.31 5.62109 16.2732 3.81799 14.7135 2.51659C13.1538 1.2152 11.1728 0.500384 9.125 0.5H9.12215Z" fill="white"/>
</svg>
