<svg width="14" height="14" viewBox="0 0 14 14" fill="none" xmlns="http://www.w3.org/2000/svg">
<path d="M6.35742 0.141518C6.76484 -0.0471726 7.23516 -0.0471726 7.64258 0.141518L13.6199 2.90351C13.8523 3.01016 14 3.2426 14 3.49966C14 3.75671 13.8523 3.98916 13.6199 4.09581L7.64258 6.8578C7.23516 7.04649 6.76484 7.04649 6.35742 6.8578L0.380078 4.09581C0.147656 3.98642 0 3.75398 0 3.49966C0 3.24534 0.147656 3.01016 0.380078 2.90351L6.35742 0.141518ZM1.31523 5.97177L5.80781 8.04737C6.56523 8.3974 7.4375 8.3974 8.19492 8.04737L12.6875 5.97177L13.6199 6.40385C13.8523 6.5105 14 6.74294 14 7C14 7.25706 13.8523 7.4895 13.6199 7.59615L7.64258 10.3581C7.23516 10.5468 6.76484 10.5468 6.35742 10.3581L0.380078 7.59615C0.147656 7.48677 0 7.25432 0 7C0 6.74568 0.147656 6.5105 0.380078 6.40385L1.3125 5.97177H1.31523ZM0.380078 9.90419L1.3125 9.47212L5.80508 11.5477C6.5625 11.8977 7.43477 11.8977 8.19219 11.5477L12.6848 9.47212L13.6172 9.90419C13.8496 10.0108 13.9973 10.2433 13.9973 10.5003C13.9973 10.7574 13.8496 10.9898 13.6172 11.0965L7.63984 13.8585C7.23242 14.0472 6.76211 14.0472 6.35469 13.8585L0.380078 11.0965C0.147656 10.9871 0 10.7547 0 10.5003C0 10.246 0.147656 10.0108 0.380078 9.90419Z" fill="#DBDEE8"/>
</svg>
