<svg width="14" height="14" viewBox="0 0 14 14" fill="none" xmlns="http://www.w3.org/2000/svg">
<path d="M7.61779 0.256323C7.27609 -0.0854409 6.72118 -0.0854409 6.37948 0.256323L4.62999 2.00615C4.3785 2.25769 4.3047 2.63226 4.44137 2.96036C4.57805 3.28845 4.89788 3.49897 5.25051 3.49897H6.12526V6.12372H3.50102V5.2488C3.50102 4.8961 3.28781 4.57621 2.95978 4.43951C2.63175 4.3028 2.25725 4.37936 2.00576 4.62816L0.256273 6.37799C-0.0854242 6.71975 -0.0854242 7.27478 0.256273 7.61654L2.00576 9.36637C2.25725 9.61791 2.63175 9.69173 2.95978 9.55502C3.28781 9.41832 3.50102 9.10116 3.50102 8.74846V7.87355H6.12526V10.4983H5.25051C4.89788 10.4983 4.57805 10.7116 4.44137 11.0396C4.3047 11.3677 4.38124 11.7423 4.62999 11.9938L6.37948 13.7437C6.72118 14.0854 7.27609 14.0854 7.61779 13.7437L9.36728 11.9938C9.61876 11.7423 9.69257 11.3677 9.55589 11.0396C9.41921 10.7116 9.10212 10.4983 8.74949 10.4983H7.87474V7.87355H10.499V8.74846C10.499 9.10116 10.7122 9.42105 11.0402 9.55776C11.3683 9.69446 11.7428 9.61791 11.9942 9.36911L13.7437 7.61928C14.0854 7.27751 14.0854 6.72249 13.7437 6.38072L11.9942 4.6309C11.7428 4.37936 11.3683 4.30554 11.0402 4.44224C10.7122 4.57895 10.499 4.8961 10.499 5.2488V6.12372H7.87474V3.49897H8.74949C9.10212 3.49897 9.42195 3.28571 9.55863 2.95762C9.6953 2.62953 9.61876 2.25496 9.37001 2.00342L7.62052 0.253589L7.61779 0.256323Z" fill="#DBDEE8"/>
</svg>
