<svg width="18" height="14" viewBox="0 0 18 14" fill="none" xmlns="http://www.w3.org/2000/svg">
<path d="M9.00002 0C6.47502 0 4.45315 1.15 2.98127 2.51875C1.51877 3.87812 0.540649 5.5 0.0750244 6.61562C-0.0281006 6.8625 -0.0281006 7.1375 0.0750244 7.38437C0.540649 8.5 1.51877 10.125 2.98127 11.4812C4.45315 12.8469 6.47502 14 9.00002 14C11.525 14 13.5469 12.85 15.0188 11.4812C16.4813 10.1219 17.4594 8.5 17.925 7.38437C18.0281 7.1375 18.0281 6.8625 17.925 6.61562C17.4594 5.5 16.4813 3.875 15.0188 2.51875C13.5469 1.15312 11.525 0 9.00002 0ZM4.50002 7C4.50002 5.80653 4.97413 4.66193 5.81804 3.81802C6.66196 2.97411 7.80655 2.5 9.00002 2.5C10.1935 2.5 11.3381 2.97411 12.182 3.81802C13.0259 4.66193 13.5 5.80653 13.5 7C13.5 8.19347 13.0259 9.33807 12.182 10.182C11.3381 11.0259 10.1935 11.5 9.00002 11.5C7.80655 11.5 6.66196 11.0259 5.81804 10.182C4.97413 9.33807 4.50002 8.19347 4.50002 7ZM9.00002 5C9.00002 6.10313 8.10315 7 7.00002 7C6.64065 7 6.30315 6.90625 6.0094 6.7375C5.97815 7.07812 6.00627 7.42812 6.10002 7.775C6.52815 9.375 8.17502 10.325 9.77502 9.89688C11.375 9.46875 12.325 7.82188 11.8969 6.22188C11.5156 4.79375 10.1625 3.88438 8.73752 4.00938C8.90315 4.3 9.00002 4.6375 9.00002 5Z" fill="#DBDEE8"/>
</svg>
