<svg width="12" height="12" viewBox="0 0 12 12" fill="none" xmlns="http://www.w3.org/2000/svg">
<g clip-path="url(#clip0_23_64)">
<path d="M6 0C9.31406 0 12 2.68594 12 6V7.5H8.34141C7.4625 7.5 6.75 8.2125 6.75 9.09141C6.75 9.51328 6.91875 9.91875 7.21641 10.2164L7.5 10.5L6 12C2.68594 12 0 9.31406 0 6C0 2.68594 2.68594 0 6 0ZM6 3C6.19891 3 6.38968 2.92098 6.53033 2.78033C6.67098 2.63968 6.75 2.44891 6.75 2.25C6.75 2.05109 6.67098 1.86032 6.53033 1.71967C6.38968 1.57902 6.19891 1.5 6 1.5C5.80109 1.5 5.61032 1.57902 5.46967 1.71967C5.32902 1.86032 5.25 2.05109 5.25 2.25C5.25 2.44891 5.32902 2.63968 5.46967 2.78033C5.61032 2.92098 5.80109 3 6 3ZM3.75 3.75C3.75 3.55109 3.67098 3.36032 3.53033 3.21967C3.38968 3.07902 3.19891 3 3 3C2.80109 3 2.61032 3.07902 2.46967 3.21967C2.32902 3.36032 2.25 3.55109 2.25 3.75C2.25 3.94891 2.32902 4.13968 2.46967 4.28033C2.61032 4.42098 2.80109 4.5 3 4.5C3.19891 4.5 3.38968 4.42098 3.53033 4.28033C3.67098 4.13968 3.75 3.94891 3.75 3.75ZM3 6.75C3 6.55109 2.92098 6.36032 2.78033 6.21967C2.63968 6.07902 2.44891 6 2.25 6C2.05109 6 1.86032 6.07902 1.71967 6.21967C1.57902 6.36032 1.5 6.55109 1.5 6.75C1.5 6.94891 1.57902 7.13968 1.71967 7.28033C1.86032 7.42098 2.05109 7.5 2.25 7.5C2.44891 7.5 2.63968 7.42098 2.78033 7.28033C2.92098 7.13968 3 6.94891 3 6.75ZM9.75 3.75C9.75 3.55109 9.67098 3.36032 9.53033 3.21967C9.38968 3.07902 9.19891 3 9 3C8.80109 3 8.61032 3.07902 8.46967 3.21967C8.32902 3.36032 8.25 3.55109 8.25 3.75C8.25 3.94891 8.32902 4.13968 8.46967 4.28033C8.61032 4.42098 8.80109 4.5 9 4.5C9.19891 4.5 9.38968 4.42098 9.53033 4.28033C9.67098 4.13968 9.75 3.94891 9.75 3.75Z" fill="white"/>
</g>
<defs>
<clipPath id="clip0_23_64">
<rect width="12" height="12" fill="white"/>
</clipPath>
</defs>
</svg>
