<svg width="14" height="14" viewBox="0 0 14 14" fill="none" xmlns="http://www.w3.org/2000/svg">
<path d="M7 0C10.8664 0 14 3.13359 14 7V8.75H9.73164C8.70625 8.75 7.875 9.58125 7.875 10.6066C7.875 11.0988 8.07187 11.5719 8.41914 11.9191L8.75 12.25L7 14C3.13359 14 0 10.8664 0 7C0 3.13359 3.13359 0 7 0ZM7 3.5C7.23206 3.5 7.45462 3.40781 7.61872 3.24372C7.78281 3.07962 7.875 2.85706 7.875 2.625C7.875 2.39294 7.78281 2.17038 7.61872 2.00628C7.45462 1.84219 7.23206 1.75 7 1.75C6.76794 1.75 6.54538 1.84219 6.38128 2.00628C6.21719 2.17038 6.125 2.39294 6.125 2.625C6.125 2.85706 6.21719 3.07962 6.38128 3.24372C6.54538 3.40781 6.76794 3.5 7 3.5ZM4.375 4.375C4.375 4.14294 4.28281 3.92038 4.11872 3.75628C3.95462 3.59219 3.73206 3.5 3.5 3.5C3.26794 3.5 3.04538 3.59219 2.88128 3.75628C2.71719 3.92038 2.625 4.14294 2.625 4.375C2.625 4.60706 2.71719 4.82962 2.88128 4.99372C3.04538 5.15781 3.26794 5.25 3.5 5.25C3.73206 5.25 3.95462 5.15781 4.11872 4.99372C4.28281 4.82962 4.375 4.60706 4.375 4.375ZM3.5 7.875C3.5 7.64294 3.40781 7.42038 3.24372 7.25628C3.07962 7.09219 2.85706 7 2.625 7C2.39294 7 2.17038 7.09219 2.00628 7.25628C1.84219 7.42038 1.75 7.64294 1.75 7.875C1.75 8.10706 1.84219 8.32962 2.00628 8.49372C2.17038 8.65781 2.39294 8.75 2.625 8.75C2.85706 8.75 3.07962 8.65781 3.24372 8.49372C3.40781 8.32962 3.5 8.10706 3.5 7.875ZM11.375 4.375C11.375 4.14294 11.2828 3.92038 11.1187 3.75628C10.9546 3.59219 10.7321 3.5 10.5 3.5C10.2679 3.5 10.0454 3.59219 9.88128 3.75628C9.71719 3.92038 9.625 4.14294 9.625 4.375C9.625 4.60706 9.71719 4.82962 9.88128 4.99372C10.0454 5.15781 10.2679 5.25 10.5 5.25C10.7321 5.25 10.9546 5.15781 11.1187 4.99372C11.2828 4.82962 11.375 4.60706 11.375 4.375Z" fill="#DBDEE8"/>
</svg>
