<svg width="15" height="17" viewBox="0 0 15 17" fill="current" xmlns="http://www.w3.org/2000/svg">
<path d="M5.77867 0.625H9.11998L9.63311 3.03672C10.1045 3.23667 10.546 3.50122 10.9458 3.81807L13.228 3.06748L14.8986 6.05137L13.1266 7.71558C13.1594 7.9709 13.1773 8.23237 13.1773 8.49692C13.1773 8.76147 13.1594 9.02295 13.1266 9.27827L14.8986 10.9425L13.228 13.9264L10.9458 13.1758C10.546 13.4926 10.1045 13.7572 9.63311 13.9571L9.11998 16.375H5.77867L5.26554 13.9633C4.79418 13.7633 4.35265 13.4988 3.95289 13.1819L1.67065 13.9294L0 10.9456L1.77209 9.28135C1.73927 9.02603 1.72137 8.76455 1.72137 8.5C1.72137 8.23545 1.73927 7.97397 1.77209 7.71865L0 6.05444L1.67065 3.07056L3.95289 3.82114C4.35265 3.5043 4.79418 3.23975 5.26554 3.03979L5.77867 0.625ZM7.44932 10.9609C8.0823 10.9609 8.68936 10.7017 9.13694 10.2401C9.58452 9.77863 9.83597 9.15268 9.83597 8.5C9.83597 7.84732 9.58452 7.22137 9.13694 6.75985C8.68936 6.29834 8.0823 6.03906 7.44932 6.03906C6.81635 6.03906 6.20929 6.29834 5.76171 6.75985C5.31413 7.22137 5.06268 7.84732 5.06268 8.5C5.06268 9.15268 5.31413 9.77863 5.76171 10.2401C6.20929 10.7017 6.81635 10.9609 7.44932 10.9609Z" fill="currentColor"/>
</svg>
