<svg width="14" height="14" viewBox="0 0 14 14" fill="none" xmlns="http://www.w3.org/2000/svg">
<path d="M5.48618 0H8.51382L8.97877 2.14375C9.40589 2.32148 9.80597 2.55664 10.1682 2.83828L12.2362 2.17109L13.75 4.82344L12.1443 6.30273C12.174 6.52969 12.1902 6.76211 12.1902 6.99727C12.1902 7.23242 12.174 7.46484 12.1443 7.6918L13.75 9.17109L12.2362 11.8234L10.1682 11.1562C9.80597 11.4379 9.40589 11.673 8.97877 11.8508L8.51382 14H5.48618L5.02122 11.8562C4.59411 11.6785 4.19403 11.4434 3.8318 11.1617L1.76382 11.8262L0.25 9.17383L1.85573 7.69453C1.82599 7.46758 1.80977 7.23516 1.80977 7C1.80977 6.76484 1.82599 6.53242 1.85573 6.30547L0.25 4.82617L1.76382 2.17383L3.8318 2.84102C4.19403 2.55938 4.59411 2.32422 5.02122 2.14648L5.48618 0ZM7 9.1875C7.57356 9.1875 8.12362 8.95703 8.52919 8.5468C8.93475 8.13656 9.16259 7.58016 9.16259 7C9.16259 6.41984 8.93475 5.86344 8.52919 5.4532C8.12362 5.04297 7.57356 4.8125 7 4.8125C6.42644 4.8125 5.87638 5.04297 5.47081 5.4532C5.06525 5.86344 4.8374 6.41984 4.8374 7C4.8374 7.58016 5.06525 8.13656 5.47081 8.5468C5.87638 8.95703 6.42644 9.1875 7 9.1875Z" fill="#DBDEE8"/>
</svg>
