<svg width="14" height="14" viewBox="0 0 14 14" fill="none" xmlns="http://www.w3.org/2000/svg">
<path d="M9.51563 2.07083C9.40625 2.11215 9.33333 2.21667 9.33333 2.33333C9.33333 2.45 9.40625 2.55451 9.51563 2.59583L10.8889 3.11111L11.4042 4.48438C11.4455 4.59375 11.55 4.66667 11.6667 4.66667C11.7833 4.66667 11.8878 4.59375 11.9292 4.48438L12.4444 3.11111L13.8177 2.59583C13.9271 2.55451 14 2.45 14 2.33333C14 2.21667 13.9271 2.11215 13.8177 2.07083L12.4444 1.55556L11.9292 0.182292C11.8878 0.0729167 11.7833 0 11.6667 0C11.55 0 11.4455 0.0729167 11.4042 0.182292L10.8889 1.55556L9.51563 2.07083ZM5.0191 2.55938C4.9559 2.42083 4.81736 2.33333 4.66667 2.33333C4.51597 2.33333 4.37743 2.42083 4.31424 2.55938L3.02361 5.35451L0.228472 6.64514C0.0875 6.71076 0 6.84931 0 7C0 7.15069 0.0875 7.28924 0.226042 7.35243L3.02118 8.64306L4.31181 11.4382C4.375 11.5767 4.51354 11.6642 4.66424 11.6642C4.81493 11.6642 4.95347 11.5767 5.01667 11.4382L6.30729 8.64306L9.10243 7.35243C9.24097 7.28924 9.32847 7.15069 9.32847 7C9.32847 6.84931 9.24097 6.71076 9.10243 6.64757L6.30729 5.35694L5.01667 2.56181L5.0191 2.55938ZM10.1111 10.8889L8.73785 11.4042C8.62847 11.4455 8.55556 11.55 8.55556 11.6667C8.55556 11.7833 8.62847 11.8878 8.73785 11.9292L10.1111 12.4444L10.6264 13.8177C10.6677 13.9271 10.7722 14 10.8889 14C11.0056 14 11.1101 13.9271 11.1514 13.8177L11.6667 12.4444L13.0399 11.9292C13.1493 11.8878 13.2222 11.7833 13.2222 11.6667C13.2222 11.55 13.1493 11.4455 13.0399 11.4042L11.6667 10.8889L11.1514 9.51563C11.1101 9.40625 11.0056 9.33333 10.8889 9.33333C10.7722 9.33333 10.6677 9.40625 10.6264 9.51563L10.1111 10.8889Z" fill="#ffffff"/>
</svg>
