<svg width="12" height="14" viewBox="0 0 12 14" fill="none" xmlns="http://www.w3.org/2000/svg">
<path d="M3.66161 0.580682C3.77946 0.233333 4.10625 0 4.47589 0H7.52679C7.89643 0 8.22321 0.233333 8.34107 0.580682L8.57143 1.27273H11.1429C11.617 1.27273 12 1.65189 12 2.12121C12 2.59053 11.617 2.9697 11.1429 2.9697H0.857143C0.383036 2.9697 0 2.59053 0 2.12121C0 1.65189 0.383036 1.27273 0.857143 1.27273H3.42857L3.66161 0.580682ZM0.857143 4.24242H11.1429V12.303C11.1429 13.239 10.3741 14 9.42857 14H2.57143C1.62589 14 0.857143 13.239 0.857143 12.303V4.24242ZM3.21429 5.93939C2.85804 5.93939 2.57143 6.22311 2.57143 6.57576V11.6667C2.57143 12.0193 2.85804 12.303 3.21429 12.303C3.57054 12.303 3.85714 12.0193 3.85714 11.6667V6.57576C3.85714 6.22311 3.57054 5.93939 3.21429 5.93939ZM6 5.93939C5.64375 5.93939 5.35714 6.22311 5.35714 6.57576V11.6667C5.35714 12.0193 5.64375 12.303 6 12.303C6.35625 12.303 6.64286 12.0193 6.64286 11.6667V6.57576C6.64286 6.22311 6.35625 5.93939 6 5.93939ZM8.78571 5.93939C8.42946 5.93939 8.14286 6.22311 8.14286 6.57576V11.6667C8.14286 12.0193 8.42946 12.303 8.78571 12.303C9.14196 12.303 9.42857 12.0193 9.42857 11.6667V6.57576C9.42857 6.22311 9.14196 5.93939 8.78571 5.93939Z" fill="#AA1C1C"/>
</svg>
