<svg width="14" height="14" viewBox="0 0 16 16" fill="none" xmlns="http://www.w3.org/2000/svg">
<path d="M0.224758 10.6192C-0.0971172 11.013 -0.0721172 11.5911 0.293508 11.9567L3.79351 15.4567C4.18413 15.8474 4.81851 15.8474 5.20601 15.4567C5.59351 15.0661 5.59663 14.4317 5.20601 14.0442L3.41226 12.2505H9.99976C13.2091 12.2505 15.831 9.72861 15.9935 6.55986L15.9998 6.25049C15.9998 2.93799 13.3123 0.250488 9.99976 0.250488H2.99976L2.89663 0.256738C2.39351 0.306738 1.99976 0.731738 1.99976 1.25049C1.99976 1.76924 2.39351 2.19424 2.89663 2.24424L2.99976 2.25049H9.99976C12.2091 2.25049 13.9998 4.04111 13.9998 6.25049L13.9935 6.45674C13.8873 8.56924 12.1404 10.2505 9.99976 10.2505H3.41226L5.20601 8.45674L5.27476 8.38174C5.59351 7.98799 5.57163 7.40986 5.20601 7.04424C4.84038 6.67861 4.26226 6.65674 3.86851 6.97549L3.79351 7.04424L0.293508 10.5442L0.224758 10.6192Z" fill="#DBDEE8"/>
</svg>
